<svg id="SvgjsSvg1006" width="1087" height="610" xmlns="http://www.w3.org/2000/svg" version="1.1" xmlns:xlink="http://www.w3.org/1999/xlink" xmlns:svgjs="http://svgjs.com/svgjs"><defs id="SvgjsDefs1007"><pattern patternUnits="userSpaceOnUse" id="pattern_mark_0" width="300" height="300"><text x="150" y="100" fill="rgba(229,229,229,0.8)" font-size="18" transform="rotate(-45, 150, 150)" style="dominant-baseline: middle; text-anchor: middle;"></text></pattern><pattern patternUnits="userSpaceOnUse" id="pattern_mark_1" width="300" height="300"><text x="150" y="200" fill="rgba(229,229,229,0.8)" font-size="18" transform="rotate(-45, 150, 150)" style="dominant-baseline: middle; text-anchor: middle;"></text></pattern><marker id="SvgjsMarker1238" markerWidth="14" markerHeight="10" refX="10" refY="5" viewBox="0 0 14 10" orient="auto" markerUnits="userSpaceOnUse" stroke-dasharray="0,0"><path id="SvgjsPath1239" d="M0,0 L14,5 L0,10 L0,0" fill="#323232" stroke="#323232" stroke-width="1"></path></marker><marker id="SvgjsMarker1242" markerWidth="14" markerHeight="10" refX="10" refY="5" viewBox="0 0 14 10" orient="auto" markerUnits="userSpaceOnUse" stroke-dasharray="0,0"><path id="SvgjsPath1243" d="M0,0 L14,5 L0,10 L0,0" fill="#323232" stroke="#323232" stroke-width="1"></path></marker><marker id="SvgjsMarker1246" markerWidth="14" markerHeight="10" refX="10" refY="5" viewBox="0 0 14 10" orient="auto" markerUnits="userSpaceOnUse" stroke-dasharray="0,0"><path id="SvgjsPath1247" d="M0,0 L14,5 L0,10 L0,0" fill="#323232" stroke="#323232" stroke-width="1"></path></marker></defs><rect id="svgbackgroundid" width="1087" height="610" fill="transparent"></rect><rect id="SvgjsRect1009" width="1087" height="610" fill="url(#pattern_mark_0)"></rect><rect id="SvgjsRect1010" width="1087" height="610" fill="url(#pattern_mark_1)"></rect><g id="SvgjsG1011" transform="translate(25.00111607142736,25)"><path id="SvgjsPath1012" d="M 0 0L 1037.1428571428596 0L 1037.1428571428596 560L 0 560Z" stroke="rgba(33,41,48,1)" stroke-width="2" fill-opacity="1" fill="#ffffff"></path><g id="SvgjsG1013"><text id="SvgjsText1014" font-family="微软雅黑" text-anchor="middle" font-size="13px" width="1018px" fill="#323232" font-weight="400" align="middle" lineHeight="125%" anchor="middle" family="微软雅黑" size="13px" weight="400" font-style="" opacity="1" y="269.375" transform="rotate(0)"></text></g></g><g id="SvgjsG1015" transform="translate(38.71540178571439,159)"><path id="SvgjsPath1016" d="M 0 0L 132 0L 132 48L 0 48Z" stroke="rgba(33,41,48,1)" stroke-width="2" fill-opacity="1" fill="#ffffff"></path><g id="SvgjsG1017"><text id="SvgjsText1018" font-family="微软雅黑" text-anchor="middle" font-size="14px" width="112px" fill="#323232" font-weight="400" align="middle" lineHeight="125%" anchor="middle" family="微软雅黑" size="14px" weight="400" font-style="" opacity="1" y="3.75" transform="rotate(0)"><tspan id="SvgjsTspan1019" dy="17" x="66"><tspan id="SvgjsTspan1020" style="text-decoration:;font-weight: bold;fill: rgb(0, 0, 0);">客服电话热线</tspan></tspan><tspan id="SvgjsTspan1021" dy="17" x="66"><tspan id="SvgjsTspan1022" style="text-decoration:;">呼叫中心</tspan></tspan></text></g></g><g id="SvgjsG1023" transform="translate(38.71540178571439,238)"><path id="SvgjsPath1024" d="M 0 0L 132 0L 132 46L 0 46Z" stroke="rgba(33,41,48,1)" stroke-width="2" fill-opacity="1" fill="#ffffff"></path><g id="SvgjsG1025"><text id="SvgjsText1026" font-family="微软雅黑" text-anchor="middle" font-size="14px" width="112px" fill="#323232" font-weight="400" align="middle" lineHeight="125%" anchor="middle" family="微软雅黑" size="14px" weight="400" font-style="" opacity="1" y="2.75" transform="rotate(0)"><tspan id="SvgjsTspan1027" dy="17" x="66"><tspan id="SvgjsTspan1028" style="text-decoration:;font-weight: bold;">移动App</tspan></tspan><tspan id="SvgjsTspan1029" dy="17" x="66"><tspan id="SvgjsTspan1030" style="text-decoration:;">Android/iOS</tspan></tspan></text></g></g><g id="SvgjsG1031" transform="translate(42.71540178571439,418.5)"><path id="SvgjsPath1032" d="M 0 0L 132 0L 132 44L 0 44Z" stroke="rgba(33,41,48,1)" stroke-width="2" fill-opacity="1" fill="#ffffff"></path><g id="SvgjsG1033"><text id="SvgjsText1034" font-family="微软雅黑" text-anchor="middle" font-size="14px" width="112px" fill="#323232" font-weight="400" align="middle" lineHeight="125%" anchor="middle" family="微软雅黑" size="14px" weight="400" font-style="" opacity="1" y="1.75" transform="rotate(0)"><tspan id="SvgjsTspan1035" dy="17" x="66"><tspan id="SvgjsTspan1036" style="text-decoration:;font-weight: bold;">官网咨询</tspan></tspan><tspan id="SvgjsTspan1037" dy="17" x="66"><tspan id="SvgjsTspan1038" style="text-decoration:;">PC/H5</tspan></tspan></text></g></g><g id="SvgjsG1039" transform="translate(42.71540178571439,328)"><path id="SvgjsPath1040" d="M 0 0L 132 0L 132 52L 0 52Z" stroke="rgba(33,41,48,1)" stroke-width="2" fill-opacity="1" fill="#ffffff"></path><g id="SvgjsG1041"><text id="SvgjsText1042" font-family="微软雅黑" text-anchor="middle" font-size="14px" width="112px" fill="#323232" font-weight="400" align="middle" lineHeight="125%" anchor="middle" family="微软雅黑" size="14px" weight="400" font-style="" opacity="1" y="-3.25" transform="rotate(0)"><tspan id="SvgjsTspan1043" dy="17" x="66"><tspan id="SvgjsTspan1044" style="text-decoration:;font-weight: bold;">微信</tspan></tspan><tspan id="SvgjsTspan1045" dy="17" x="66"><tspan id="SvgjsTspan1046" style="text-decoration:;">企业客服/公众号/</tspan></tspan><tspan id="SvgjsTspan1047" dy="17" x="66"><tspan id="SvgjsTspan1048" style="text-decoration:;">小程序</tspan></tspan></text></g></g><g id="SvgjsG1049" transform="translate(488.50111607142617,180.5)"><path id="SvgjsPath1050" d="M 0 59.75C 0 -19.916666666666668 118.21428571428623 -19.916666666666668 118.21428571428623 59.75C 118.21428571428623 139.41666666666666 0 139.41666666666666 0 59.75Z" stroke="rgba(33,41,48,1)" stroke-width="2" fill-opacity="1" fill="#00ffff"></path><g id="SvgjsG1051"><text id="SvgjsText1052" font-family="微软雅黑" text-anchor="middle" font-size="18px" width="99px" fill="#000000" font-weight="700" align="middle" lineHeight="125%" anchor="middle" family="微软雅黑" size="18px" weight="700" font-style="" opacity="1" y="33" transform="rotate(0)"><tspan id="SvgjsTspan1053" dy="22" x="59.5"><tspan id="SvgjsTspan1054" style="text-decoration:;">高效坐席</tspan></tspan><tspan id="SvgjsTspan1055" dy="22" x="59.5"><tspan id="SvgjsTspan1056" style="text-decoration:;">工作台</tspan></tspan></text></g></g><g id="SvgjsG1057" transform="translate(180.7154017857145,238)"><path id="SvgjsPath1058" d="M 0 222.5Q 6.07142857142855 222.5 6.07142857142855 213.5L 6.07142857142855 120.25Q 6.07142857142855 111.25 22 111.25Q 6.07142857142855 111.25 6.07142857142855 102.25L 6.07142857142855 9Q 6.07142857142855 0 0 0" stroke="rgba(33,41,48,1)" stroke-width="2" fill="none"></path><path id="SvgjsPath1059" d="M 0 0L 60.714285714285495 0L 60.714285714285495 222.5L 0 222.5Z" stroke="none" fill="none"></path><g id="SvgjsG1060"><text id="SvgjsText1061" font-family="微软雅黑" text-anchor="start" font-size="13px" width="34px" fill="#323232" font-weight="400" align="middle" lineHeight="125%" anchor="start" family="微软雅黑" size="13px" weight="400" font-style="" opacity="1" y="100.625" transform="rotate(0)"></text></g></g><g id="SvgjsG1062" transform="translate(38.71540178571439,36)"><path id="SvgjsPath1063" d="M 0 4Q 0 0 4 0L 1005.7142857142856 0Q 1009.7142857142856 0 1009.7142857142856 4L 1009.7142857142856 73Q 1009.7142857142856 77 1005.7142857142856 77L 4 77Q 0 77 0 73Z" stroke="rgba(33,41,48,1)" stroke-width="2" fill-opacity="1" fill="#b2ebf2"></path><g id="SvgjsG1064"><text id="SvgjsText1065" font-family="微软雅黑" text-anchor="middle" font-size="13px" width="990px" fill="#323232" font-weight="400" align="middle" lineHeight="125%" anchor="middle" family="微软雅黑" size="13px" weight="400" font-style="" opacity="1" y="27.875" transform="rotate(0)"></text></g></g><g id="SvgjsG1066" transform="translate(56.71540178571439,49.5)"><path id="SvgjsPath1067" d="M 16.666666666666668 0L 101.33333333333333 0C 123.55555555555556 0 123.55555555555556 50 101.33333333333333 50L 16.666666666666668 50C -5.555555555555556 50 -5.555555555555556 0 16.666666666666668 0Z" stroke="rgba(33,41,48,1)" stroke-width="2" fill-opacity="1" fill="#fff9c4"></path><g id="SvgjsG1068"><text id="SvgjsText1069" font-family="微软雅黑" text-anchor="middle" font-size="16px" width="98px" fill="#323232" font-weight="700" align="middle" lineHeight="125%" anchor="middle" family="微软雅黑" size="16px" weight="700" font-style="" opacity="1" y="11" transform="rotate(0)"><tspan id="SvgjsTspan1070" dy="20" x="59"><tspan id="SvgjsTspan1071" style="text-decoration:;">渠道一体</tspan></tspan></text></g></g><g id="SvgjsG1072" transform="translate(273.2154017857142,49.5)"><path id="SvgjsPath1073" d="M 16.666666666666668 0L 101.33333333333333 0C 123.55555555555556 0 123.55555555555556 50 101.33333333333333 50L 16.666666666666668 50C -5.555555555555556 50 -5.555555555555556 0 16.666666666666668 0Z" stroke="rgba(33,41,48,1)" stroke-width="2" fill-opacity="1" fill="#fff9c4"></path><g id="SvgjsG1074"><text id="SvgjsText1075" font-family="微软雅黑" text-anchor="middle" font-size="16px" width="98px" fill="#323232" font-weight="700" align="middle" lineHeight="125%" anchor="middle" family="微软雅黑" size="16px" weight="700" font-style="" opacity="1" y="11" transform="rotate(0)"><tspan id="SvgjsTspan1076" dy="20" x="59"><tspan id="SvgjsTspan1077" style="text-decoration:;">服务分流</tspan></tspan></text></g></g><g id="SvgjsG1078" transform="translate(489.715401785714,49.5)"><path id="SvgjsPath1079" d="M 16.666666666666668 0L 101.33333333333333 0C 123.55555555555556 0 123.55555555555556 50 101.33333333333333 50L 16.666666666666668 50C -5.555555555555556 50 -5.555555555555556 0 16.666666666666668 0Z" stroke="rgba(33,41,48,1)" stroke-width="2" fill-opacity="1" fill="#fff9c4"></path><g id="SvgjsG1080"><text id="SvgjsText1081" font-family="微软雅黑" text-anchor="middle" font-size="16px" width="98px" fill="#323232" font-weight="700" align="middle" lineHeight="125%" anchor="middle" family="微软雅黑" size="16px" weight="700" font-style="" opacity="1" y="11" transform="rotate(0)"><tspan id="SvgjsTspan1082" dy="20" x="59"><tspan id="SvgjsTspan1083" style="text-decoration:;">业务流程</tspan></tspan></text></g></g><g id="SvgjsG1084" transform="translate(706.2154017857138,49.5)"><path id="SvgjsPath1085" d="M 16.666666666666668 0L 101.33333333333333 0C 123.55555555555556 0 123.55555555555556 50 101.33333333333333 50L 16.666666666666668 50C -5.555555555555556 50 -5.555555555555556 0 16.666666666666668 0Z" stroke="rgba(33,41,48,1)" stroke-width="2" fill-opacity="1" fill="#fff9c4"></path><g id="SvgjsG1086"><text id="SvgjsText1087" font-family="微软雅黑" text-anchor="middle" font-size="16px" width="98px" fill="#323232" font-weight="700" align="middle" lineHeight="125%" anchor="middle" family="微软雅黑" size="16px" weight="700" font-style="" opacity="1" y="11" transform="rotate(0)"><tspan id="SvgjsTspan1088" dy="20" x="59"><tspan id="SvgjsTspan1089" style="text-decoration:;">数据运营</tspan></tspan></text></g></g><g id="SvgjsG1090" transform="translate(918.7154017857151,49.5)"><path id="SvgjsPath1091" d="M 16.666666666666668 0L 101.33333333333333 0C 123.55555555555556 0 123.55555555555556 50 101.33333333333333 50L 16.666666666666668 50C -5.555555555555556 50 -5.555555555555556 0 16.666666666666668 0Z" stroke="rgba(33,41,48,1)" stroke-width="2" fill-opacity="1" fill="#fff9c4"></path><g id="SvgjsG1092"><text id="SvgjsText1093" font-family="微软雅黑" text-anchor="middle" font-size="16px" width="98px" fill="#323232" font-weight="700" align="middle" lineHeight="125%" anchor="middle" family="微软雅黑" size="16px" weight="700" font-style="" opacity="1" y="11" transform="rotate(0)"><tspan id="SvgjsTspan1094" dy="20" x="59"><tspan id="SvgjsTspan1095" style="text-decoration:;">精细管理</tspan></tspan></text></g></g><g id="SvgjsG1096" transform="translate(208.2154017857144,319)"><path id="SvgjsPath1097" d="M 0 20.130000000000003L 24.474999999999998 20.130000000000003L 24.474999999999998 0L 44.5 30.5L 24.474999999999998 61L 24.474999999999998 40.870000000000005L 0 40.870000000000005L 0 20.130000000000003Z" stroke="rgba(33,41,48,1)" stroke-width="2" fill-opacity="1" fill="#ffffff"></path><g id="SvgjsG1098"><text id="SvgjsText1099" font-family="微软雅黑" text-anchor="middle" font-size="13px" width="45px" fill="#323232" font-weight="400" align="middle" lineHeight="125%" anchor="middle" family="微软雅黑" size="13px" weight="400" font-style="" opacity="1" y="19.875000000000004" transform="rotate(0)"></text></g></g><g id="SvgjsG1100" transform="translate(251.71540178571433,383)"><path id="SvgjsPath1101" d="M 0 0L 85 0L 85 39L 0 39Z" stroke="none" fill="none"></path><g id="SvgjsG1102"><text id="SvgjsText1103" font-family="微软雅黑" text-anchor="middle" font-size="13px" width="85px" fill="#323232" font-weight="400" align="middle" lineHeight="125%" anchor="middle" family="微软雅黑" size="13px" weight="400" font-style="" opacity="1" y="8.875" transform="rotate(0)"><tspan id="SvgjsTspan1104" dy="16" x="42.5"><tspan id="SvgjsTspan1105" style="text-decoration:;">问题预判</tspan></tspan></text></g></g><g id="SvgjsG1106" transform="translate(336.71540178571433,383)"><path id="SvgjsPath1107" d="M 0 0L 85 0L 85 39L 0 39Z" stroke="none" fill="none"></path><g id="SvgjsG1108"><text id="SvgjsText1109" font-family="微软雅黑" text-anchor="middle" font-size="13px" width="85px" fill="#323232" font-weight="400" align="middle" lineHeight="125%" anchor="middle" family="微软雅黑" size="13px" weight="400" font-style="" opacity="1" y="8.875" transform="rotate(0)"><tspan id="SvgjsTspan1110" dy="16" x="42.5"><tspan id="SvgjsTspan1111" style="text-decoration:;">智能引导</tspan></tspan></text></g></g><g id="SvgjsG1112" transform="translate(249.21540178571365,420.5)"><path id="SvgjsPath1113" d="M 0 0L 85 0L 85 39L 0 39Z" stroke="none" fill="none"></path><g id="SvgjsG1114"><text id="SvgjsText1115" font-family="微软雅黑" text-anchor="middle" font-size="13px" width="85px" fill="#323232" font-weight="400" align="middle" lineHeight="125%" anchor="middle" family="微软雅黑" size="13px" weight="400" font-style="" opacity="1" y="8.875" transform="rotate(0)"><tspan id="SvgjsTspan1116" dy="16" x="42.5"><tspan id="SvgjsTspan1117" style="text-decoration:;">多轮会话</tspan></tspan></text></g></g><g id="SvgjsG1118" transform="translate(336.71540178571433,422)"><path id="SvgjsPath1119" d="M 0 0L 85 0L 85 39L 0 39Z" stroke="none" fill="none"></path><g id="SvgjsG1120"><text id="SvgjsText1121" font-family="微软雅黑" text-anchor="middle" font-size="13px" width="85px" fill="#323232" font-weight="400" align="middle" lineHeight="125%" anchor="middle" family="微软雅黑" size="13px" weight="400" font-style="" opacity="1" y="8.875" transform="rotate(0)"><tspan id="SvgjsTspan1122" dy="16" x="42.5"><tspan id="SvgjsTspan1123" style="text-decoration:;">业务知识</tspan></tspan></text></g></g><g id="SvgjsG1124" transform="translate(336.71540178571433,461.5)"><path id="SvgjsPath1125" d="M 0 0L 85 0L 85 39L 0 39Z" stroke="none" fill="none"></path><g id="SvgjsG1126"><text id="SvgjsText1127" font-family="微软雅黑" text-anchor="middle" font-size="13px" width="85px" fill="#323232" font-weight="400" align="middle" lineHeight="125%" anchor="middle" family="微软雅黑" size="13px" weight="400" font-style="" opacity="1" y="8.875" transform="rotate(0)"><tspan id="SvgjsTspan1128" dy="16" x="42.5"><tspan id="SvgjsTspan1129" style="text-decoration:;">行业模型</tspan></tspan></text></g></g><g id="SvgjsG1130" transform="translate(251.71540178571433,461.5)"><path id="SvgjsPath1131" d="M 0 0L 85 0L 85 39L 0 39Z" stroke="none" fill="none"></path><g id="SvgjsG1132"><text id="SvgjsText1133" font-family="微软雅黑" text-anchor="middle" font-size="13px" width="85px" fill="#323232" font-weight="400" align="middle" lineHeight="125%" anchor="middle" family="微软雅黑" size="13px" weight="400" font-style="" opacity="1" y="8.875" transform="rotate(0)"><tspan id="SvgjsTspan1134" dy="16" x="42.5"><tspan id="SvgjsTspan1135" style="text-decoration:;">快捷入口</tspan></tspan></text></g></g><g id="SvgjsG1136" transform="translate(442.21540178571365,230.5)"><path id="SvgjsPath1137" d="M 0 20.130000000000003L 24.474999999999998 20.130000000000003L 24.474999999999998 0L 44.5 30.5L 24.474999999999998 61L 24.474999999999998 40.870000000000005L 0 40.870000000000005L 0 20.130000000000003Z" stroke="rgba(33,41,48,1)" stroke-width="2" fill-opacity="1" fill="#ffffff"></path><g id="SvgjsG1138"><text id="SvgjsText1139" font-family="微软雅黑" text-anchor="middle" font-size="13px" width="45px" fill="#323232" font-weight="400" align="middle" lineHeight="125%" anchor="middle" family="微软雅黑" size="13px" weight="400" font-style="" opacity="1" y="19.875000000000004" transform="rotate(0)"></text></g></g><g id="SvgjsG1140" transform="translate(472.71540178571365,291)"><path id="SvgjsPath1141" d="M 0 0L 85 0L 85 39L 0 39Z" stroke="none" fill="none"></path><g id="SvgjsG1142"><text id="SvgjsText1143" font-family="微软雅黑" text-anchor="middle" font-size="13px" width="85px" fill="#323232" font-weight="400" align="middle" lineHeight="125%" anchor="middle" family="微软雅黑" size="13px" weight="400" font-style="" opacity="1" y="8.875" transform="rotate(0)"><tspan id="SvgjsTspan1144" dy="16" x="42.5"><tspan id="SvgjsTspan1145" style="text-decoration:;">身份识别</tspan></tspan></text></g></g><g id="SvgjsG1146" transform="translate(553.7154017857137,291)"><path id="SvgjsPath1147" d="M 0 0L 85 0L 85 39L 0 39Z" stroke="none" fill="none"></path><g id="SvgjsG1148"><text id="SvgjsText1149" font-family="微软雅黑" text-anchor="middle" font-size="13px" width="85px" fill="#323232" font-weight="400" align="middle" lineHeight="125%" anchor="middle" family="微软雅黑" size="13px" weight="400" font-style="" opacity="1" y="8.875" transform="rotate(0)"><tspan id="SvgjsTspan1150" dy="16" x="42.5"><tspan id="SvgjsTspan1151" style="text-decoration:;">访次识别</tspan></tspan></text></g></g><g id="SvgjsG1152" transform="translate(472.71540178571365,325)"><path id="SvgjsPath1153" d="M 0 0L 85 0L 85 39L 0 39Z" stroke="none" fill="none"></path><g id="SvgjsG1154"><text id="SvgjsText1155" font-family="微软雅黑" text-anchor="middle" font-size="13px" width="85px" fill="#323232" font-weight="400" align="middle" lineHeight="125%" anchor="middle" family="微软雅黑" size="13px" weight="400" font-style="" opacity="1" y="8.875" transform="rotate(0)"><tspan id="SvgjsTspan1156" dy="16" x="42.5"><tspan id="SvgjsTspan1157" style="text-decoration:;">语音识别</tspan></tspan></text></g></g><g id="SvgjsG1158" transform="translate(553.7154017857137,324)"><path id="SvgjsPath1159" d="M 0 0L 85 0L 85 39L 0 39Z" stroke="none" fill="none"></path><g id="SvgjsG1160"><text id="SvgjsText1161" font-family="微软雅黑" text-anchor="middle" font-size="13px" width="85px" fill="#323232" font-weight="400" align="middle" lineHeight="125%" anchor="middle" family="微软雅黑" size="13px" weight="400" font-style="" opacity="1" y="8.875" transform="rotate(0)"><tspan id="SvgjsTspan1162" dy="16" x="42.5"><tspan id="SvgjsTspan1163" style="text-decoration:;">历史记录</tspan></tspan></text></g></g><g id="SvgjsG1164" transform="translate(472.71540178571365,359)"><path id="SvgjsPath1165" d="M 0 0L 85 0L 85 39L 0 39Z" stroke="none" fill="none"></path><g id="SvgjsG1166"><text id="SvgjsText1167" font-family="微软雅黑" text-anchor="middle" font-size="13px" width="85px" fill="#323232" font-weight="400" align="middle" lineHeight="125%" anchor="middle" family="微软雅黑" size="13px" weight="400" font-style="" opacity="1" y="8.875" transform="rotate(0)"><tspan id="SvgjsTspan1168" dy="16" x="42.5"><tspan id="SvgjsTspan1169" style="text-decoration:;">内部对接</tspan></tspan></text></g></g><g id="SvgjsG1170" transform="translate(472.71540178571365,393)"><path id="SvgjsPath1171" d="M 0 0L 85 0L 85 39L 0 39Z" stroke="none" fill="none"></path><g id="SvgjsG1172"><text id="SvgjsText1173" font-family="微软雅黑" text-anchor="middle" font-size="13px" width="85px" fill="#323232" font-weight="400" align="middle" lineHeight="125%" anchor="middle" family="微软雅黑" size="13px" weight="400" font-style="" opacity="1" y="8.875" transform="rotate(0)"><tspan id="SvgjsTspan1174" dy="16" x="42.5"><tspan id="SvgjsTspan1175" style="text-decoration:;">知识关联</tspan></tspan></text></g></g><g id="SvgjsG1176" transform="translate(472.71540178571365,427)"><path id="SvgjsPath1177" d="M 0 0L 85 0L 85 39L 0 39Z" stroke="none" fill="none"></path><g id="SvgjsG1178"><text id="SvgjsText1179" font-family="微软雅黑" text-anchor="middle" font-size="13px" width="85px" fill="#323232" font-weight="400" align="middle" lineHeight="125%" anchor="middle" family="微软雅黑" size="13px" weight="400" font-style="" opacity="1" y="8.875" transform="rotate(0)"><tspan id="SvgjsTspan1180" dy="16" x="42.5"><tspan id="SvgjsTspan1181" style="text-decoration:;">一键小结</tspan></tspan></text></g></g><g id="SvgjsG1182" transform="translate(553.7154017857137,359)"><path id="SvgjsPath1183" d="M 0 0L 85 0L 85 39L 0 39Z" stroke="none" fill="none"></path><g id="SvgjsG1184"><text id="SvgjsText1185" font-family="微软雅黑" text-anchor="middle" font-size="13px" width="85px" fill="#323232" font-weight="400" align="middle" lineHeight="125%" anchor="middle" family="微软雅黑" size="13px" weight="400" font-style="" opacity="1" y="8.875" transform="rotate(0)"><tspan id="SvgjsTspan1186" dy="16" x="42.5"><tspan id="SvgjsTspan1187" style="text-decoration:;">会话转接</tspan></tspan></text></g></g><g id="SvgjsG1188" transform="translate(553.7154017857137,427)"><path id="SvgjsPath1189" d="M 0 0L 85 0L 85 39L 0 39Z" stroke="none" fill="none"></path><g id="SvgjsG1190"><text id="SvgjsText1191" font-family="微软雅黑" text-anchor="middle" font-size="13px" width="85px" fill="#323232" font-weight="400" align="middle" lineHeight="125%" anchor="middle" family="微软雅黑" size="13px" weight="400" font-style="" opacity="1" y="8.875" transform="rotate(0)"><tspan id="SvgjsTspan1192" dy="16" x="42.5"><tspan id="SvgjsTspan1193" style="text-decoration:;">快捷回复</tspan></tspan></text></g></g><g id="SvgjsG1194" transform="translate(472.71540178571365,461)"><path id="SvgjsPath1195" d="M 0 0L 85 0L 85 39L 0 39Z" stroke="none" fill="none"></path><g id="SvgjsG1196"><text id="SvgjsText1197" font-family="微软雅黑" text-anchor="middle" font-size="13px" width="85px" fill="#323232" font-weight="400" align="middle" lineHeight="125%" anchor="middle" family="微软雅黑" size="13px" weight="400" font-style="" opacity="1" y="8.875" transform="rotate(0)"><tspan id="SvgjsTspan1198" dy="16" x="42.5"><tspan id="SvgjsTspan1199" style="text-decoration:;">邀请评价</tspan></tspan></text></g></g><g id="SvgjsG1200" transform="translate(624.2154017857137,209.75)"><path id="SvgjsPath1201" d="M 0 20.130000000000003L 24.474999999999998 20.130000000000003L 24.474999999999998 0L 44.5 30.5L 24.474999999999998 61L 24.474999999999998 40.870000000000005L 0 40.870000000000005L 0 20.130000000000003Z" stroke="rgba(33,41,48,1)" stroke-width="2" fill-opacity="1" fill="#ffffff"></path><g id="SvgjsG1202"><text id="SvgjsText1203" font-family="微软雅黑" text-anchor="middle" font-size="13px" width="45px" fill="#323232" font-weight="400" align="middle" lineHeight="125%" anchor="middle" family="微软雅黑" size="13px" weight="400" font-style="" opacity="1" y="19.875000000000004" transform="rotate(0)"></text></g></g><g id="SvgjsG1204" transform="translate(729.2154017857138,162)"><path id="SvgjsPath1205" d="M 0 0L 100 0L 100 48L 0 48Z" stroke-dasharray="10,6" stroke="rgba(33,41,48,1)" stroke-width="2" fill-opacity="1" fill="#ffffff"></path><g id="SvgjsG1206"><text id="SvgjsText1207" font-family="微软雅黑" text-anchor="middle" font-size="15px" width="80px" fill="#323232" font-weight="700" align="middle" lineHeight="125%" anchor="middle" family="微软雅黑" size="15px" weight="700" font-style="" opacity="1" y="11.625" transform="rotate(0)"><tspan id="SvgjsTspan1208" dy="18" x="50"><tspan id="SvgjsTspan1209" style="text-decoration:;">客户满意度</tspan></tspan></text></g></g><g id="SvgjsG1210" transform="translate(729.2154017857138,258)"><path id="SvgjsPath1211" d="M 0 0L 100 0L 100 47L 0 47Z" stroke-dasharray="10,6" stroke="rgba(33,41,48,1)" stroke-width="2" fill-opacity="1" fill="#ffffff"></path><g id="SvgjsG1212"><text id="SvgjsText1213" font-family="微软雅黑" text-anchor="middle" font-size="15px" width="80px" fill="#323232" font-weight="700" align="middle" lineHeight="125%" anchor="middle" family="微软雅黑" size="15px" weight="700" font-style="" opacity="1" y="11.125" transform="rotate(0)"><tspan id="SvgjsTspan1214" dy="18" x="50"><tspan id="SvgjsTspan1215" style="text-decoration:;">工单流转</tspan></tspan></text></g></g><g id="SvgjsG1216" transform="translate(679.7154017857137,154)"><path id="SvgjsPath1217" d="M 0 0L 44 0L 44 40L 0 40Z" stroke="none" fill="none"></path><g id="SvgjsG1218"><text id="SvgjsText1219" font-family="微软雅黑" text-anchor="middle" font-size="14px" width="44px" fill="#323232" font-weight="700" align="middle" lineHeight="125%" anchor="middle" family="微软雅黑" size="14px" weight="700" font-style="" opacity="1" y="8.25" transform="rotate(0)"><tspan id="SvgjsTspan1220" dy="17" x="22"><tspan id="SvgjsTspan1221" style="text-decoration:;">Y</tspan></tspan></text></g></g><g id="SvgjsG1222" transform="translate(679.7154017857137,281)"><path id="SvgjsPath1223" d="M 0 0L 44 0L 44 40L 0 40Z" stroke="none" fill="none"></path><g id="SvgjsG1224"><text id="SvgjsText1225" font-family="微软雅黑" text-anchor="middle" font-size="14px" width="44px" fill="#323232" font-weight="700" align="middle" lineHeight="125%" anchor="middle" family="微软雅黑" size="14px" weight="700" font-style="" opacity="1" y="8.25" transform="rotate(0)"><tspan id="SvgjsTspan1226" dy="17" x="22"><tspan id="SvgjsTspan1227" style="text-decoration:;">N</tspan></tspan></text></g></g><g id="SvgjsG1228" transform="translate(933.9654017857151,155.5)"><path id="SvgjsPath1229" d="M 0 0L 100.5 0L 100.5 61L 0 61Z" stroke-dasharray="10,6" stroke="rgba(33,41,48,1)" stroke-width="2" fill-opacity="1" fill="#ffffff"></path><g id="SvgjsG1230"><text id="SvgjsText1231" font-family="微软雅黑" text-anchor="middle" font-size="15px" width="81px" fill="#323232" font-weight="700" align="middle" lineHeight="125%" anchor="middle" family="微软雅黑" size="15px" weight="700" font-style="" opacity="1" y="8.625" transform="rotate(0)"><tspan id="SvgjsTspan1232" dy="18" x="50.5"><tspan id="SvgjsTspan1233" style="text-decoration:;">审批</tspan></tspan><tspan id="SvgjsTspan1234" dy="18" x="50.5"><tspan id="SvgjsTspan1235" style="text-decoration:;">监控</tspan></tspan></text></g></g><g id="SvgjsG1236"><path id="SvgjsPath1237" d="M830.2154017857146 281.5L881.5904017857149 281.5L881.5904017857149 186L930.3654017857151 186" stroke="#323232" stroke-width="2" fill="none" marker-end="url(#SvgjsMarker1238)"></path></g><g id="SvgjsG1240"><path id="SvgjsPath1241" d="M669.7154017857137 240.25L698.9654017857138 240.25L698.9654017857138 186L725.6154017857137 186" stroke="#323232" stroke-width="2" fill="none" marker-end="url(#SvgjsMarker1242)"></path></g><g id="SvgjsG1244"><path id="SvgjsPath1245" d="M669.7154017857137 240.25L698.9654017857138 240.25L698.9654017857138 281.5L725.6154017857137 281.5" stroke="#323232" stroke-width="2" fill="none" marker-end="url(#SvgjsMarker1246)"></path></g><g id="SvgjsG1248" transform="translate(924.2154017857151,238)"><path id="SvgjsPath1249" d="M 0 0L 120 0L 120 40L 0 40Z" stroke="none" fill="none"></path><g id="SvgjsG1250"><text id="SvgjsText1251" font-family="微软雅黑" text-anchor="middle" font-size="17px" width="120px" fill="#323232" font-weight="700" align="middle" lineHeight="125%" anchor="middle" family="微软雅黑" size="17px" weight="700" font-style="" opacity="1" y="5.375" transform="rotate(0)"><tspan id="SvgjsTspan1252" dy="21" x="60"><tspan id="SvgjsTspan1253" style="text-decoration:;">管理者</tspan></tspan></text></g></g><g id="SvgjsG1254" transform="translate(696.2154017857137,320)"><path id="SvgjsPath1255" d="M 0 0L 85 0L 85 39L 0 39Z" stroke="none" fill="none"></path><g id="SvgjsG1256"><text id="SvgjsText1257" font-family="微软雅黑" text-anchor="middle" font-size="13px" width="85px" fill="#323232" font-weight="400" align="middle" lineHeight="125%" anchor="middle" family="微软雅黑" size="13px" weight="400" font-style="" opacity="1" y="8.875" transform="rotate(0)"><tspan id="SvgjsTspan1258" dy="16" x="42.5"><tspan id="SvgjsTspan1259" style="text-decoration:;">服务评价</tspan></tspan></text></g></g><g id="SvgjsG1260" transform="translate(767.7154017857129,354)"><path id="SvgjsPath1261" d="M 0 0L 85 0L 85 39L 0 39Z" stroke="none" fill="none"></path><g id="SvgjsG1262"><text id="SvgjsText1263" font-family="微软雅黑" text-anchor="middle" font-size="13px" width="85px" fill="#323232" font-weight="400" align="middle" lineHeight="125%" anchor="middle" family="微软雅黑" size="13px" weight="400" font-style="" opacity="1" y="8.875" transform="rotate(0)"><tspan id="SvgjsTspan1264" dy="16" x="42.5"><tspan id="SvgjsTspan1265" style="text-decoration:;">工单处理</tspan></tspan></text></g></g><g id="SvgjsG1266" transform="translate(696.2154017857137,382.5)"><path id="SvgjsPath1267" d="M 0 0L 85 0L 85 39L 0 39Z" stroke="none" fill="none"></path><g id="SvgjsG1268"><text id="SvgjsText1269" font-family="微软雅黑" text-anchor="middle" font-size="13px" width="85px" fill="#323232" font-weight="400" align="middle" lineHeight="125%" anchor="middle" family="微软雅黑" size="13px" weight="400" font-style="" opacity="1" y="8.875" transform="rotate(0)"><tspan id="SvgjsTspan1270" dy="16" x="42.5"><tspan id="SvgjsTspan1271" style="text-decoration:;">实时监控</tspan></tspan></text></g></g><g id="SvgjsG1272" transform="translate(770.715401785713,408.5)"><path id="SvgjsPath1273" d="M 0 0L 85 0L 85 39L 0 39Z" stroke="none" fill="none"></path><g id="SvgjsG1274"><text id="SvgjsText1275" font-family="微软雅黑" text-anchor="middle" font-size="13px" width="85px" fill="#323232" font-weight="400" align="middle" lineHeight="125%" anchor="middle" family="微软雅黑" size="13px" weight="400" font-style="" opacity="1" y="8.875" transform="rotate(0)"><tspan id="SvgjsTspan1276" dy="16" x="42.5"><tspan id="SvgjsTspan1277" style="text-decoration:;">敏感预警</tspan></tspan></text></g></g><g id="SvgjsG1278" transform="translate(693.715401785713,408.5)"><path id="SvgjsPath1279" d="M 0 0L 85 0L 85 39L 0 39Z" stroke="none" fill="none"></path><g id="SvgjsG1280"><text id="SvgjsText1281" font-family="微软雅黑" text-anchor="middle" font-size="13px" width="85px" fill="#323232" font-weight="400" align="middle" lineHeight="125%" anchor="middle" family="微软雅黑" size="13px" weight="400" font-style="" opacity="1" y="8.875" transform="rotate(0)"><tspan id="SvgjsTspan1282" dy="16" x="42.5"><tspan id="SvgjsTspan1283" style="text-decoration:;">大屏场控</tspan></tspan></text></g></g><g id="SvgjsG1284" transform="translate(770.715401785713,380)"><path id="SvgjsPath1285" d="M 0 0L 85 0L 85 39L 0 39Z" stroke="none" fill="none"></path><g id="SvgjsG1286"><text id="SvgjsText1287" font-family="微软雅黑" text-anchor="middle" font-size="13px" width="85px" fill="#323232" font-weight="400" align="middle" lineHeight="125%" anchor="middle" family="微软雅黑" size="13px" weight="400" font-style="" opacity="1" y="8.875" transform="rotate(0)"><tspan id="SvgjsTspan1288" dy="16" x="42.5"><tspan id="SvgjsTspan1289" style="text-decoration:;">同步接口</tspan></tspan></text></g></g><g id="SvgjsG1290" transform="translate(693.715401785713,354)"><path id="SvgjsPath1291" d="M 0 0L 85 0L 85 39L 0 39Z" stroke="none" fill="none"></path><g id="SvgjsG1292"><text id="SvgjsText1293" font-family="微软雅黑" text-anchor="middle" font-size="13px" width="85px" fill="#323232" font-weight="400" align="middle" lineHeight="125%" anchor="middle" family="微软雅黑" size="13px" weight="400" font-style="" opacity="1" y="8.875" transform="rotate(0)"><tspan id="SvgjsTspan1294" dy="16" x="42.5"><tspan id="SvgjsTspan1295" style="text-decoration:;">工单通知</tspan></tspan></text></g></g><g id="SvgjsG1296" transform="translate(941.7154017857151,285.5)"><path id="SvgjsPath1297" d="M 0 0L 85 0L 85 39L 0 39Z" stroke="none" fill="none"></path><g id="SvgjsG1298"><text id="SvgjsText1299" font-family="微软雅黑" text-anchor="middle" font-size="13px" width="85px" fill="#323232" font-weight="400" align="middle" lineHeight="125%" anchor="middle" family="微软雅黑" size="13px" weight="400" font-style="" opacity="1" y="8.875" transform="rotate(0)"><tspan id="SvgjsTspan1300" dy="16" x="42.5"><tspan id="SvgjsTspan1301" style="text-decoration:;">监控预警</tspan></tspan></text></g></g><g id="SvgjsG1302" transform="translate(941.7154017857151,330.5)"><path id="SvgjsPath1303" d="M 0 0L 85 0L 85 39L 0 39Z" stroke="none" fill="none"></path><g id="SvgjsG1304"><text id="SvgjsText1305" font-family="微软雅黑" text-anchor="middle" font-size="13px" width="85px" fill="#323232" font-weight="400" align="middle" lineHeight="125%" anchor="middle" family="微软雅黑" size="13px" weight="400" font-style="" opacity="1" y="8.875" transform="rotate(0)"><tspan id="SvgjsTspan1306" dy="16" x="42.5"><tspan id="SvgjsTspan1307" style="text-decoration:;">绩效评估</tspan></tspan></text></g></g><g id="SvgjsG1308" transform="translate(941.7154017857151,411.5)"><path id="SvgjsPath1309" d="M 0 0L 85 0L 85 39L 0 39Z" stroke="none" fill="none"></path><g id="SvgjsG1310"><text id="SvgjsText1311" font-family="微软雅黑" text-anchor="middle" font-size="13px" width="85px" fill="#323232" font-weight="400" align="middle" lineHeight="125%" anchor="middle" family="微软雅黑" size="13px" weight="400" font-style="" opacity="1" y="8.875" transform="rotate(0)"><tspan id="SvgjsTspan1312" dy="16" x="42.5"><tspan id="SvgjsTspan1313" style="text-decoration:;">实时报表</tspan></tspan></text></g></g><g id="SvgjsG1314" transform="translate(941.7154017857151,369.5)"><path id="SvgjsPath1315" d="M 0 0L 85 0L 85 39L 0 39Z" stroke="none" fill="none"></path><g id="SvgjsG1316"><text id="SvgjsText1317" font-family="微软雅黑" text-anchor="middle" font-size="13px" width="85px" fill="#323232" font-weight="400" align="middle" lineHeight="125%" anchor="middle" family="微软雅黑" size="13px" weight="400" font-style="" opacity="1" y="8.875" transform="rotate(0)"><tspan id="SvgjsTspan1318" dy="16" x="42.5"><tspan id="SvgjsTspan1319" style="text-decoration:;">智能质检</tspan></tspan></text></g></g><g id="SvgjsG1320" transform="translate(941.7154017857151,453.5)"><path id="SvgjsPath1321" d="M 0 0L 85 0L 85 39L 0 39Z" stroke="none" fill="none"></path><g id="SvgjsG1322"><text id="SvgjsText1323" font-family="微软雅黑" text-anchor="middle" font-size="13px" width="85px" fill="#323232" font-weight="400" align="middle" lineHeight="125%" anchor="middle" family="微软雅黑" size="13px" weight="400" font-style="" opacity="1" y="8.875" transform="rotate(0)"><tspan id="SvgjsTspan1324" dy="16" x="42.5"><tspan id="SvgjsTspan1325" style="text-decoration:;">辅助决策</tspan></tspan></text></g></g><g id="SvgjsG1326" transform="translate(211.7154017857144,519)"><path id="SvgjsPath1327" d="M 0 0L 836.7142857142856 0L 836.7142857142856 52L 0 52Z" stroke-dasharray="10,6" stroke="rgba(33,41,48,1)" stroke-width="2" fill-opacity="1" fill="#ffffff"></path><g id="SvgjsG1328"><text id="SvgjsText1329" font-family="微软雅黑" text-anchor="middle" font-size="13px" width="817px" fill="#323232" font-weight="400" align="middle" lineHeight="125%" anchor="middle" family="微软雅黑" size="13px" weight="400" font-style="" opacity="1" y="15.375" transform="rotate(0)"></text></g></g><g id="SvgjsG1330" transform="translate(237.2154017857144,525)"><path id="SvgjsPath1331" d="M 0 0L 199.5 0L 199.5 40L 0 40Z" stroke="none" fill="none"></path><g id="SvgjsG1332"><text id="SvgjsText1333" font-family="微软雅黑" text-anchor="middle" font-size="17px" width="200px" fill="#323232" font-weight="400" align="middle" lineHeight="125%" anchor="middle" family="微软雅黑" size="17px" weight="400" font-style="" opacity="1" y="5.375" transform="rotate(0)"><tspan id="SvgjsTspan1334" dy="21" x="100"><tspan id="SvgjsTspan1335" style="text-decoration:;">提高机器人问题解决率</tspan></tspan></text></g></g><g id="SvgjsG1336" transform="translate(506.71540178571377,525)"><path id="SvgjsPath1337" d="M 0 0L 199.5 0L 199.5 40L 0 40Z" stroke="none" fill="none"></path><g id="SvgjsG1338"><text id="SvgjsText1339" font-family="微软雅黑" text-anchor="middle" font-size="17px" width="200px" fill="#323232" font-weight="400" align="middle" lineHeight="125%" anchor="middle" family="微软雅黑" size="17px" weight="400" font-style="" opacity="1" y="5.375" transform="rotate(0)"><tspan id="SvgjsTspan1340" dy="21" x="100"><tspan id="SvgjsTspan1341" style="text-decoration:;">提高处理响应效率</tspan></tspan></text></g></g><g id="SvgjsG1342" transform="translate(781.2154017857137,525)"><path id="SvgjsPath1343" d="M 0 0L 199.5 0L 199.5 40L 0 40Z" stroke="none" fill="none"></path><g id="SvgjsG1344"><text id="SvgjsText1345" font-family="微软雅黑" text-anchor="middle" font-size="17px" width="200px" fill="#323232" font-weight="400" align="middle" lineHeight="125%" anchor="middle" family="微软雅黑" size="17px" weight="400" font-style="" opacity="1" y="5.375" transform="rotate(0)"><tspan id="SvgjsTspan1346" dy="21" x="100"><tspan id="SvgjsTspan1347" style="text-decoration:;">智能监控减少投诉</tspan></tspan></text></g></g><g id="SvgjsG1348" transform="translate(267.2154017857142,315)"><path id="SvgjsPath1349" d="M 0 0L 92 0L 92 59L 0 59Z" stroke="rgba(33,41,48,1)" stroke-width="2" fill-opacity="1" fill="#bbdefb"></path><g id="SvgjsG1350"><text id="SvgjsText1351" font-family="微软雅黑" text-anchor="middle" font-size="18px" width="72px" fill="#323232" font-weight="700" align="middle" lineHeight="125%" anchor="middle" family="微软雅黑" size="18px" weight="700" font-style="" opacity="1" y="-19.75" transform="rotate(0)"><tspan id="SvgjsTspan1352" dy="22" x="46"><tspan id="SvgjsTspan1353" style="text-decoration:;"> </tspan></tspan><tspan id="SvgjsTspan1354" dy="22" x="46"><tspan id="SvgjsTspan1355" style="text-decoration:;font-size: inherit;">webot</tspan></tspan><tspan id="SvgjsTspan1356" dy="22" x="46"><tspan id="SvgjsTspan1357" style="text-decoration:;font-size: inherit;">机器人</tspan></tspan><tspan id="SvgjsTspan1358" dy="22" x="46"><tspan id="SvgjsTspan1359" style="text-decoration:;"> </tspan></tspan></text></g></g><g id="SvgjsG1360" transform="translate(238.60825892857082,154)"><path id="SvgjsPath1361" d="M 0 0L 165.82142857142918 0L 165.82142857142918 67L 0 67Z" stroke="rgba(33,41,48,1)" stroke-width="2" fill-opacity="1" fill="#bbdefb"></path><g id="SvgjsG1362"><text id="SvgjsText1363" font-family="微软雅黑" text-anchor="middle" font-size="18px" width="146px" fill="#323232" font-weight="700" align="middle" lineHeight="125%" anchor="middle" family="微软雅黑" size="18px" weight="700" font-style="" opacity="1" y="6.75" transform="rotate(0)"><tspan id="SvgjsTspan1364" dy="22" x="83"><tspan id="SvgjsTspan1365" style="text-decoration:;font-size: inherit;">IVR语言导航</tspan></tspan><tspan id="SvgjsTspan1366" dy="22" x="83"><tspan id="SvgjsTspan1367" style="text-decoration:;">AI智能语言机器人</tspan></tspan></text></g></g><g id="SvgjsG1368" transform="translate(182.82254464285722,157)"><path id="SvgjsPath1369" d="M 0 20.130000000000003L 24.474999999999998 20.130000000000003L 24.474999999999998 0L 44.5 30.5L 24.474999999999998 61L 24.474999999999998 40.870000000000005L 0 40.870000000000005L 0 20.130000000000003Z" stroke="rgba(33,41,48,1)" stroke-width="2" fill-opacity="1" fill="#ffffff"></path><g id="SvgjsG1370"><text id="SvgjsText1371" font-family="微软雅黑" text-anchor="middle" font-size="13px" width="45px" fill="#323232" font-weight="400" align="middle" lineHeight="125%" anchor="middle" family="微软雅黑" size="13px" weight="400" font-style="" opacity="1" y="19.875000000000004" transform="rotate(0)"></text></g></g><g id="SvgjsG1372" transform="translate(417.71540178571405,154)"><path id="SvgjsPath1373" d="M 0 217Q 5.95714285714289 217 5.95714285714289 208L 5.95714285714289 117.5Q 5.95714285714289 108.5 22 108.5Q 5.95714285714289 108.5 5.95714285714289 99.5L 5.95714285714289 9Q 5.95714285714289 0 0 0" stroke="rgba(33,41,48,1)" stroke-width="2" fill="none"></path><path id="SvgjsPath1374" d="M 0 0L 59.571428571428896 0L 59.571428571428896 217L 0 217Z" stroke="none" fill="none"></path><g id="SvgjsG1375"><text id="SvgjsText1376" font-family="微软雅黑" text-anchor="start" font-size="13px" width="33px" fill="#323232" font-weight="400" align="middle" lineHeight="125%" anchor="start" family="微软雅黑" size="13px" weight="400" font-style="" opacity="1" y="97.875" transform="rotate(0)"></text></g></g><g id="SvgjsG1377" transform="translate(248.60825892857082,225)"><path id="SvgjsPath1378" d="M 0 0L 85 0L 85 39L 0 39Z" stroke="none" fill="none"></path><g id="SvgjsG1379"><text id="SvgjsText1380" font-family="微软雅黑" text-anchor="middle" font-size="13px" width="85px" fill="#323232" font-weight="400" align="middle" lineHeight="125%" anchor="middle" family="微软雅黑" size="13px" weight="400" font-style="" opacity="1" y="8.875" transform="rotate(0)"><tspan id="SvgjsTspan1381" dy="16" x="42.5"><tspan id="SvgjsTspan1382" style="text-decoration:;">快捷入口</tspan></tspan></text></g></g><g id="SvgjsG1383" transform="translate(329.60825892857054,225)"><path id="SvgjsPath1384" d="M 0 0L 85 0L 85 39L 0 39Z" stroke="none" fill="none"></path><g id="SvgjsG1385"><text id="SvgjsText1386" font-family="微软雅黑" text-anchor="middle" font-size="13px" width="85px" fill="#323232" font-weight="400" align="middle" lineHeight="125%" anchor="middle" family="微软雅黑" size="13px" weight="400" font-style="" opacity="1" y="8.875" transform="rotate(0)"><tspan id="SvgjsTspan1387" dy="16" x="42.5"><tspan id="SvgjsTspan1388" style="text-decoration:;">机器学习</tspan></tspan></text></g></g><g id="SvgjsG1389" transform="translate(767.7154017857129,321)"><path id="SvgjsPath1390" d="M 0 0L 85 0L 85 39L 0 39Z" stroke="none" fill="none"></path><g id="SvgjsG1391"><text id="SvgjsText1392" font-family="微软雅黑" text-anchor="middle" font-size="13px" width="85px" fill="#323232" font-weight="400" align="middle" lineHeight="125%" anchor="middle" family="微软雅黑" size="13px" weight="400" font-style="" opacity="1" y="8.875" transform="rotate(0)"><tspan id="SvgjsTspan1393" dy="16" x="42.5"><tspan id="SvgjsTspan1394" style="text-decoration:;">工单分配</tspan></tspan></text></g></g><g id="SvgjsG1395" transform="translate(553.7154017857137,393)"><path id="SvgjsPath1396" d="M 0 0L 85 0L 85 39L 0 39Z" stroke="none" fill="none"></path><g id="SvgjsG1397"><text id="SvgjsText1398" font-family="微软雅黑" text-anchor="middle" font-size="13px" width="85px" fill="#323232" font-weight="400" align="middle" lineHeight="125%" anchor="middle" family="微软雅黑" size="13px" weight="400" font-style="" opacity="1" y="8.875" transform="rotate(0)"><tspan id="SvgjsTspan1399" dy="16" x="42.5"><tspan id="SvgjsTspan1400" style="text-decoration:;">知识传承</tspan></tspan></text></g></g><g id="SvgjsG1401" transform="translate(553.7154017857137,461)"><path id="SvgjsPath1402" d="M 0 0L 85 0L 85 39L 0 39Z" stroke="none" fill="none"></path><g id="SvgjsG1403"><text id="SvgjsText1404" font-family="微软雅黑" text-anchor="middle" font-size="13px" width="85px" fill="#323232" font-weight="400" align="middle" lineHeight="125%" anchor="middle" family="微软雅黑" size="13px" weight="400" font-style="" opacity="1" y="8.875" transform="rotate(0)"><tspan id="SvgjsTspan1405" dy="16" x="42.5"><tspan id="SvgjsTspan1406" style="text-decoration:;">操作功能</tspan></tspan></text></g></g></svg>